PathFileType	4	(X/Y/Z)	5_coords_data.trc
DataRate	CameraRate	NumFrames	NumMarkers	Units	OrigDataRate	OrigDataStartFrame	OrigNumFrames
30.0	30.0	7	21	m	30.0	40	59
Frame#	Time	THUMB_TIP	THUMB_IP	THUMB_MCP	THUMB_CMC	INDEX_TIP	INDEX_DIP	INDEX_PIP	INDEX_MCP	MIDDLE_TIP	MIDDLE_DIP	MIDDLE_PIP	MIDDLE_MCP	RING_TIP	RING_DIP	RING_PIP	RING_MCP	PINKY_TIP	PINKY_DIP	PINKY_PIP	PINKY_MCP	WRIST
X1	Y1	Z1	X2	Y2	Z2	X3	Y3	Z3	X4	Y4	Z4	X5	Y5	Z5	X6	Y6	Z6	X7	Y7	Z7	X8	Y8	Z8	X9	Y9	Z9	X10	Y10	Z10	X11	Y11	Z11	X12	Y12	Z12	X13	Y13	Z13	X14	Y14	Z14	X15	Y15	Z15	X16	Y16	Z16	X17	Y17	Z17	X18	Y18	Z18	X19	Y19	Z19	X20	Y20	Z20	X21	Y21	Z21
38	1.299999999999994	0.5066493430194691	-7.601350266261964e-05	-0.16014168017489475	0.5016970964228977	-0.007190719615158936	-0.138861261697347	0.48136147790015404	-0.022449434925312928	-0.12090425118943918	0.47468551024763583	-0.02852203064271941	-0.07721849793788735	0.5066759936786978	-0.03203607364775529	-0.0969878073982206	0.5193429261505558	-0.02209931001254306	-0.1052829596096822	0.5288458233596696	-0.0027142977390350875	-0.11816418923999952	0.49264963806231743	0.019722545427268368	-0.11840981629563169	0.5085793675122324	-0.025654570224284412	-0.08469253913307195	0.5241385016467831	-0.017627865480221105	-0.0893277690016645	0.5354519221850831	0.006595179193460199	-0.10093208597684311	0.49798309184266154	0.030920967806536415	-0.10163257303794035	0.5084779657015909	-0.012365553569934962	-0.07150609963053589	0.5249975262849544	-0.005770189966690986	-0.07443957829478293	0.5373236429043874	0.014667761565110293	-0.08154851388795559	0.5040527861957443	0.03754799478096915	-0.0836139087317696	0.5109582830032431	-0.013629941240356547	-0.05660175151470087	0.5272495877431465	-0.008628092835277767	-0.05820640175827679	0.5369706798808067	0.009573908889828897	-0.062079323116932594	0.5094969902221582	0.032940909847249955	-0.061828138332043675	0.4622830810018608	-0.023011742144276925	-0.051989820119430985
39	1.3333333333333275	0.5065463955820345	-0.0010699616860695427	-0.1604709354352094	0.501603714735208	-0.007991003616379166	-0.13912452860302077	0.4811119274145732	-0.02279453584731861	-0.12096517602939061	0.4746069465903331	-0.02866314283646254	-0.0772257810120468	0.5129803790393825	-0.033596869729012546	-0.09917996684770558	0.5239492711615502	-0.021884469787964322	-0.10757657885691424	0.5305939804413065	-0.0010529895423861957	-0.11998250898591337	0.4931541928002273	0.01918938408818871	-0.11851802778388165	0.5153465989454903	-0.028096906275088096	-0.08624719438476597	0.5293951230737626	-0.017866993202327652	-0.09134502219091162	0.537135200250703	0.007895955001205879	-0.10255980061748135	0.49858491720219245	0.03046296120463876	-0.10169156741497146	0.5148942103569228	-0.015109138155233515	-0.07260393884590505	0.530074976436661	-0.005933183083757232	-0.07582048820174062	0.5393468040110784	0.01611768225609489	-0.08274670868581308	0.5047459725297572	0.03701195004860869	-0.08371255971776687	0.5165014659562547	-0.016143112856755404	-0.05816398388640237	0.5318591952262435	-0.008737864261173511	-0.05968136482320072	0.5389750440153751	0.01070029789692395	-0.0631934250342058	0.5101524977452812	0.03235026393260043	-0.062000425385275365	0.4622830810018609	-0.023011742144276925	-0.051989820119430985
40	1.3666666666666607	0.5064519685650701	-0.0026286110164359666	-0.1609364084082031	0.5015493643751997	-0.009241802764985874	-0.13948343269259714	0.48085403784434766	-0.023368782774063068	-0.12101854992544842	0.4745564995253425	-0.028875779035514082	-0.0772018407462206	0.5216526055634385	-0.03492278762621437	-0.1023366814103508	0.5301038710674404	-0.021209711374234552	-0.11061482438376286	0.5328750701553653	0.0009663478506366507	-0.12212797711748832	0.4941366257582748	0.018304068553425368	-0.1186105262613113	0.5250515260644317	-0.03027752126017058	-0.0885252615773422	0.536630503813152	-0.017480101551075045	-0.09401646573343478	0.5395271935116348	0.009580090323690005	-0.10444549994047478	0.49970903205701156	0.029660104644992913	-0.10171512190257909	0.5240577175609806	-0.017622720901495637	-0.07427885595065514	0.536991984410187	-0.005520286754811199	-0.07763084473325638	0.5421291583441242	0.01796745886818829	-0.08412046941591333	0.5059866914163448	0.03608695107880211	-0.08376421051583985	0.5245749687856722	-0.01857912800182615	-0.06014436789323699	0.5381494767888163	-0.008229009332712978	-0.06141234896874809	0.5417524550360093	0.012240698243850878	-0.06438247328941515	0.5112513936293362	0.03135787307543492	-0.062123639403310754	0.4622830810018609	-0.023011742144276925	-0.051989820119430985
41	1.3999999999999937	0.5063778996892735	-0.004743990847528634	-0.16149631374263002	0.5015667941755309	-0.01095431997223828	-0.13990267866424597	0.48063174377617435	-0.024184162170655665	-0.1210475748411064	0.4745441169057053	-0.02916648422950041	-0.07713849530181416	0.5328999324631398	-0.03523105805226856	-0.10664634691480213	0.5377890766011376	-0.01961803714381194	-0.11441357600309224	0.5355402413260636	0.003336202224251461	-0.12441634901557364	0.4956433732212464	0.017062496895983936	-0.1186314683762173	0.5384053336033146	-0.03138180091634124	-0.09167027739764999	0.5458699327673188	-0.015894344691624873	-0.09736399841366733	0.5425044371632289	0.011600688321417585	-0.10642524275153592	0.5014069854786258	0.028465731243302095	-0.10165893251460134	0.536507835622395	-0.01916717514031041	-0.07666784456604081	0.5457178360171543	-0.0040110234283895485	-0.07990311240870474	0.5454753827760906	0.020237630363891035	-0.08557091486539081	0.5077776724435308	0.034736775598647074	-0.08373291128980584	0.5356915623712574	-0.020252452241709462	-0.06251894102024147	0.5459995880142218	-0.006608987784559872	-0.06329385066044696	0.5450521982644199	0.014247142017534742	-0.06551563402976032	0.512755287548399	0.02995337139923404	-0.062182862238769065	0.4622830810018609	-0.023011742144276925	-0.05198982011943096
42	1.4333333333333271	0.5062588714051964	-0.007313137316393159	-0.1621461687381609	0.50160005851476	-0.01304847641789586	-0.14038838052697827	0.4804443234320731	-0.025180862740552645	-0.12104774777546307	0.4745668209004623	-0.029509776493642614	-0.07704086797571791	0.5463853624641417	-0.03338064249745831	-0.11236357295621907	0.5464319009148522	-0.0165234909498565	-0.11898431882611854	0.5383031798922512	0.00598356981699899	-0.12668924862293052	0.4975928866916173	0.015481356299978932	-0.11855904730671696	0.5554411503668466	-0.02958065221174644	-0.09612964237819732	0.5564802196990917	-0.012300648103237277	-0.10145146471013378	0.5457699363549046	0.013905438049382712	-0.1083753674570449	0.5035747044566351	0.026890151215281488	-0.1015118734452011	0.5523005518146196	-0.018259632507452883	-0.08000514194091779	0.5557388763314829	-0.0007628436879398848	-0.08265849934656494	0.549037101502761	0.02282584541404864	-0.086998999271094	0.510039995854194	0.032948837361594485	-0.08361202140514262	0.5500364736861058	-0.01968746179054104	-0.06524805888256455	0.5548881144926602	-0.003272180108272016	-0.06525848845287033	0.5485532501389556	0.016705192425524262	-0.06651789278273584	0.5146151859179982	0.028117721363970283	-0.06217676030798891	0.462283081001861	-0.023011742144276925	-0.05198982011943101
43	1.4666666666666603	0.5060412871257391	-0.010242457449232356	-0.162864836247029	0.5016171174580801	-0.015446056957201137	-0.1409251627099767	0.48029235476663823	-0.026309485091505214	-0.12102389578235381	0.4746006977847391	-0.029881632055983043	-0.07692474832047458	0.5603255811476473	-0.028128551343723607	-0.11929483881452102	0.5548685463119223	-0.0115237157995276	-0.12403827716153126	0.5408503878983748	0.008804469186545982	-0.12875695948445343	0.499835157904545	0.013646403840619992	-0.11836741323069777	0.5737610158720261	-0.022481078994903703	-0.10206851783053428	0.5669453899471939	-0.006175403868211915	-0.10602733102586709	0.5490169503167002	0.0164304199209655	-0.11014525929483987	0.5060761967102513	0.024980653012806497	-0.10124957973758081	0.5695266183950078	-0.012824437922739018	-0.08428602789177875	0.5656797372342646	0.004727423679587117	-0.0857467330735007	0.5524053547340259	0.025643420524859795	-0.08829463892064282	0.5126017608708683	0.03078283166446527	-0.08339757830074876	0.5658291694146417	-0.014754588274455971	-0.06802237148837512	0.5635238404047018	0.002181999545679769	-0.06710724790833023	0.5517932309243451	0.01959371378576258	-0.0672996730653791	0.5166690229694835	0.0259404542441366	-0.06211388941219015	0.4622830810018609	-0.023011742144276925	-0.051989820119430985
44	1.4999999999999936	0.5057103544106655	-0.013437148833538859	-0.16357562331935402	0.5015824525761465	-0.01807076053304768	-0.1414512008621971	0.4801543039622008	-0.027537263983148486	-0.12095632932300743	0.4746793174217273	-0.03028543896960001	-0.07677078806089907	0.5723349413036671	-0.01957362575684063	-0.12655991305838538	0.5617708672910737	-0.005057791210102858	-0.12894547120443384	0.5429724697636973	0.011565635970894661	-0.13045932461900417	0.50223284105983	0.011623900742157467	-0.11805306199533422	0.5883564232093387	-0.010679928367822611	-0.10838549746249188	0.5754460974863717	0.0018519841525960201	-0.11045302214371669	0.5519361318873702	0.019037927791070608	-0.1116081882741673	0.508731027542251	0.02281789301438386	-0.10087605230606134	0.5842447720655931	-0.0027592621733883993	-0.0887996928891302	0.5738648487800005	0.0119803609873389	-0.08877320392987165	0.5552140088405518	0.028472562325100648	-0.08935064967433293	0.5152696525743741	0.028342510976603674	-0.08309346795031233	0.5792708114964065	-0.00533313356453291	-0.07026969179241568	0.5704750106729517	0.00925373923219519	-0.06857941670054826	0.5543413616836683	0.0226650879390502	-0.06777126129857658	0.5187471631898564	0.023549846288045573	-0.06201333743254647	0.462283081001861	-0.023011742144276925	-0.051989820119430985
